HIERARCHY
ROOT Hips
{
	OFFSET -14.64140 90.27770 -84.91600
	CHANNELS 6 Xposition Yposition Zposition Zrotation Xrotation Yrotation
	JOINT Spine
	{
		OFFSET 0.00000 13.20850 -1.60436
		CHANNELS 3 Zrotation Xrotation Yrotation
		JOINT Spine1
		{
			OFFSET 0.00000 8.61716 0.00000
			CHANNELS 3 Zrotation Xrotation Yrotation
			JOINT Spine2
			{
				OFFSET 0.00000 8.61717 0.00000
				CHANNELS 3 Zrotation Xrotation Yrotation
				JOINT Spine3
				{
					OFFSET 0.00000 8.61717 0.00000
					CHANNELS 3 Zrotation Xrotation Yrotation
					JOINT Neck
					{
						OFFSET 0.00000 11.07920 1.10792
						CHANNELS 3 Zrotation Xrotation Yrotation
						JOINT Neck1
						{
							OFFSET 0.00000 7.08032 0.00000
							CHANNELS 3 Zrotation Xrotation Yrotation
							JOINT Head
							{
								OFFSET 0.00000 7.08031 0.00000
								CHANNELS 3 Zrotation Xrotation Yrotation
								End site
								{
									OFFSET 0.00000 0.00000 0.00000
								}
							}
						}
					}
					JOINT RightShoulder
					{
						OFFSET -0.01000 7.91373 5.19711
						CHANNELS 3 Zrotation Xrotation Yrotation
						JOINT RightArm
						{
							OFFSET -18.41580 0.00000 0.00000
							CHANNELS 3 Zrotation Xrotation Yrotation
							JOINT RightForeArm
							{
								OFFSET -29.11090 0.00000 0.00000
								CHANNELS 3 Zrotation Xrotation Yrotation
								JOINT RightHand
								{
									OFFSET -24.65040 0.00000 0.00000
									CHANNELS 3 Zrotation Xrotation Yrotation
									JOINT RightHandThumb1
									{
										OFFSET -5.35114 -0.85590 3.97906
										CHANNELS 3 Zrotation Xrotation Yrotation
										JOINT RightHandThumb2
										{
											OFFSET -4.52789 0.00000 0.00000
											CHANNELS 3 Zrotation Xrotation Yrotation
											JOINT RightHandThumb3
											{
												OFFSET -2.46976 0.00000 0.00000
												CHANNELS 3 Zrotation Xrotation Yrotation
												End site
												{
													OFFSET 0.00000 0.00000 0.00000
												}
											}
										}
									}
									JOINT RightHandIndex1
									{
										OFFSET -14.26970 0.00000 2.88139
										CHANNELS 3 Zrotation Xrotation Yrotation
										JOINT RightHandIndex2
										{
											OFFSET -5.48836 0.00000 0.00000
											CHANNELS 3 Zrotation Xrotation Yrotation
											JOINT RightHandIndex3
											{
												OFFSET -3.01859 0.00000 0.00000
												CHANNELS 3 Zrotation Xrotation Yrotation
												End site
												{
													OFFSET 0.00000 0.00000 0.00000
												}
											}
										}
									}
									JOINT RightHandMiddle1
									{
										OFFSET -14.26970 0.00000 -0.09147
										CHANNELS 3 Zrotation Xrotation Yrotation
										JOINT RightHandMiddle2
										{
											OFFSET -6.17441 0.00000 0.00000
											CHANNELS 3 Zrotation Xrotation Yrotation
											JOINT RightHandMiddle3
											{
												OFFSET -3.56743 0.00000 0.00000
												CHANNELS 3 Zrotation Xrotation Yrotation
												End site
												{
													OFFSET 0.00000 0.00000 0.00000
												}
											}
										}
									}
									JOINT RightHandRing1
									{
										OFFSET -12.69180 0.00000 -3.06433
										CHANNELS 3 Zrotation Xrotation Yrotation
										JOINT RightHandRing2
										{
											OFFSET -5.62556 0.00000 0.00000
											CHANNELS 3 Zrotation Xrotation Yrotation
											JOINT RightHandRing3
											{
												OFFSET -3.56744 0.00000 0.00000
												CHANNELS 3 Zrotation Xrotation Yrotation
												End site
												{
													OFFSET 0.00000 0.00000 0.00000
												}
											}
										}
									}
									JOINT RightHandPinky1
									{
										OFFSET -11.11390 0.00000 -6.03719
										CHANNELS 3 Zrotation Xrotation Yrotation
										JOINT RightHandPinky2
										{
											OFFSET -4.52789 0.00000 0.00000
											CHANNELS 3 Zrotation Xrotation Yrotation
											JOINT RightHandPinky3
											{
												OFFSET -2.46976 0.00000 0.00000
												CHANNELS 3 Zrotation Xrotation Yrotation
												End site
												{
													OFFSET 0.00000 0.00000 0.00000
												}
											}
										}
									}
								}
							}
						}
					}
					JOINT LeftShoulder
					{
						OFFSET 0.01000 7.91373 5.19711
						CHANNELS 3 Zrotation Xrotation Yrotation
						JOINT LeftArm
						{
							OFFSET 18.41580 0.00000 0.00000
							CHANNELS 3 Zrotation Xrotation Yrotation
							JOINT LeftForeArm
							{
								OFFSET 29.11090 0.00000 0.00000
								CHANNELS 3 Zrotation Xrotation Yrotation
								JOINT LeftHand
								{
									OFFSET 24.65040 0.00000 0.00000
									CHANNELS 3 Zrotation Xrotation Yrotation
									JOINT LeftHandThumb1
									{
										OFFSET 5.35114 -0.85590 3.97906
										CHANNELS 3 Zrotation Xrotation Yrotation
										JOINT LeftHandThumb2
										{
											OFFSET 4.52789 0.00000 0.00000
											CHANNELS 3 Zrotation Xrotation Yrotation
											JOINT LeftHandThumb3
											{
												OFFSET 2.46977 0.00000 0.00000
												CHANNELS 3 Zrotation Xrotation Yrotation
												End site
												{
													OFFSET 0.00000 0.00000 0.00000
												}
											}
										}
									}
									JOINT LeftHandIndex1
									{
										OFFSET 14.26970 0.00000 2.88139
										CHANNELS 3 Zrotation Xrotation Yrotation
										JOINT LeftHandIndex2
										{
											OFFSET 5.48836 0.00000 0.00000
											CHANNELS 3 Zrotation Xrotation Yrotation
											JOINT LeftHandIndex3
											{
												OFFSET 3.01859 0.00000 0.00000
												CHANNELS 3 Zrotation Xrotation Yrotation
												End site
												{
													OFFSET 0.00000 0.00000 0.00000
												}
											}
										}
									}
									JOINT LeftHandMiddle1
									{
										OFFSET 14.26970 0.00000 -0.09147
										CHANNELS 3 Zrotation Xrotation Yrotation
										JOINT LeftHandMiddle2
										{
											OFFSET 6.17440 0.00000 0.00000
											CHANNELS 3 Zrotation Xrotation Yrotation
											JOINT LeftHandMiddle3
											{
												OFFSET 3.56744 0.00000 0.00000
												CHANNELS 3 Zrotation Xrotation Yrotation
												End site
												{
													OFFSET 0.00000 0.00000 0.00000
												}
											}
										}
									}
									JOINT LeftHandRing1
									{
										OFFSET 12.69180 0.00000 -3.06433
										CHANNELS 3 Zrotation Xrotation Yrotation
										JOINT LeftHandRing2
										{
											OFFSET 5.62556 0.00000 0.00000
											CHANNELS 3 Zrotation Xrotation Yrotation
											JOINT LeftHandRing3
											{
												OFFSET 3.56744 0.00000 0.00000
												CHANNELS 3 Zrotation Xrotation Yrotation
												End site
												{
													OFFSET 0.00000 0.00000 0.00000
												}
											}
										}
									}
									JOINT LeftHandPinky1
									{
										OFFSET 11.11390 0.00000 -6.03719
										CHANNELS 3 Zrotation Xrotation Yrotation
										JOINT LeftHandPinky2
										{
											OFFSET 4.52789 0.00000 0.00000
											CHANNELS 3 Zrotation Xrotation Yrotation
											JOINT LeftHandPinky3
											{
												OFFSET 2.46976 0.00000 0.00000
												CHANNELS 3 Zrotation Xrotation Yrotation
												End site
												{
													OFFSET 0.00000 0.00000 0.00000
												}
											}
										}
									}
								}
							}
						}
					}
					JOINT pCube4
					{
						OFFSET 0.00000 10.91090 1.10792
						CHANNELS 3 Zrotation Xrotation Yrotation
						End site
						{
							OFFSET 0.00000 0.00000 0.00000
						}
					}
				}
			}
		}
	}
	JOINT RightUpLeg
	{
		OFFSET -9.98441 0.00000 0.00000
		CHANNELS 3 Zrotation Xrotation Yrotation
		JOINT RightLeg
		{
			OFFSET 0.00000 -42.11790 0.00000
			CHANNELS 3 Zrotation Xrotation Yrotation
			JOINT RightFoot
			{
				OFFSET 0.00000 -45.00020 -0.00001
				CHANNELS 3 Zrotation Xrotation Yrotation
				JOINT RightForeFoot
				{
					OFFSET 0.00000 -3.74820 0.00000
					CHANNELS 3 Zrotation Xrotation Yrotation
					JOINT RightToeBase
					{
						OFFSET 0.00000 0.06325 14.43120
						CHANNELS 3 Zrotation Xrotation Yrotation
						End site
						{
							OFFSET 0.00000 0.00000 0.00000
						}
					}
				}
			}
		}
	}
	JOINT LeftUpLeg
	{
		OFFSET 9.98441 0.00000 0.00000
		CHANNELS 3 Zrotation Xrotation Yrotation
		JOINT LeftLeg
		{
			OFFSET 0.00000 -42.11800 0.00000
			CHANNELS 3 Zrotation Xrotation Yrotation
			JOINT LeftFoot
			{
				OFFSET 0.00000 -45.00070 0.00000
				CHANNELS 3 Zrotation Xrotation Yrotation
				JOINT LeftForeFoot
				{
					OFFSET 0.00000 -3.74824 0.00000
					CHANNELS 3 Zrotation Xrotation Yrotation
					JOINT LeftToeBase
					{
						OFFSET 0.00000 0.06325 14.43110
						CHANNELS 3 Zrotation Xrotation Yrotation
						End site
						{
							OFFSET 0.00000 0.00000 0.00000
						}
					}
				}
			}
		}
	}
}
MOTION
Frames: 4
Frame Time: 0.050000
-0.019688157630894442 -0.011645078473149216 -0.03768047187422807 -0.043681243378609784 -0.005349512517361148 0.0218372187607364 -4.646147271066795 8.012617538721594 -0.5815759797779734 -0.6930819137005116 2.958922968911187 0.36653858771876274 -0.9766136311274767 0.19096809484108515 -1.2967161860826777 -0.6476013824058473 0.26892452759977753 -1.0653853149116774 -0.07765889021536646 7.368347429469933 0.1613906034780856 -0.13581271403368855 -1.3155593360300022 -3.1607159168176606 -0.09613500511286602 -15.366579656898638 -0.21657228150005042 4.112664335942555 -0.13685631532101666 -9.847120636270128 58.7118724318323 -12.797672339847436 25.758867068508266 29.3445883724082 9.299664726360579 101.40001429888441 24.8592679097956 -0.092000891613709 -10.716979788138488 4.513040552745842 -0.13902799447194827 -1.5764469363959774 -0.003508104349713759 0.015222294601568877 -56.20732169054835 0.008119138583242912 0.02448465320626241 -56.25588729450862 -38.75235278155241 0.0014837168458967254 0.02051863016262439 0.0011393444648929362 0.016116374339168307 0.013603020808225287 0.009952828181044947 -0.03333473877837734 -0.0309768662433422 -36.672553933050544 0.0383257865605918 0.04571785390433321 0.03778632395439893 -0.03134800429410739 0.03485473244643274 -0.03476142319497349 0.01758314069040627 0.015129394487807212 -19.752548553892296 0.009458332479721797 0.03230866091558603 -0.01995772062304846 0.013243607937214871 0.018321893832970663 0.009383631027131346 0.029475163812563425 -0.023501482808820934 24.05033433866876 0.04653789216227748 0.04794021755357162 28.8287845084529 0.019597085730395702 -0.03334117158216726 28.865409994680718 0.0045523189952610095 0.024701233814820187 -3.535847965661109 -0.1284965270421055 8.53611797803308 -60.620178516933514 18.708160780257888 -20.611364578343036 -44.69629986834492 9.678320010581057 -100.20801801524831 -12.625702958938803 2.8560868339643073 -1.7996585579970865 -0.4856397489979003 0.02185066209691664 -8.128640106253469 -0.02532837213174186 -0.020207360566859806 44.52623267982778 -0.04493957715254935 -0.03125098769066012 44.53220013542567 12.497622123689084 -0.03338770102836222 -0.03618789761282364 0.007441804453806418 -0.006677995971899532 0.04952917206123957 0.04829842754481394 -0.034669867872226964 0.017147983032805972 11.133964603084253 -0.03657272416349195 0.0005468586738262678 -0.045963585014598345 0.005346920093572051 -0.015051395803030882 0.04138768041416018 0.040752372711490695 0.024906338644063043 4.769658758645078 -0.019490356745440276 -0.015670080679841537 -0.006621703385929967 0.010110423276951469 0.04009807017516961 -0.017870948006618325 0.009817928276221853 0.027678706506443468 -5.582667797768695 0.0498447991925453 -0.039985070605938505 -6.716319607380569 0.02137439458194381 -0.009342412068056888 -6.718375798545338 0.004810884183189575 0.005729243047183056 -0.02447407267799521 -0.025697880452197404 0.017042838289344248 8.058869455334523 3.5162723818187676 -19.221446042637393 0.021273166844649007 10.370876456303323 0.011896411755812367 -5.571956916128613 -15.684792857191772 3.171717205506638 0.006445434156633469 0.034285976260787186 -0.009531771577321891 -0.002567372894034613 4.689454136145361 -0.04912310156954025 12.488923601486285 -8.258455913493355 6.851696980781226 0.031078837926042213 46.42854474054203 -0.008178923766534063 -4.3130851211257974 -14.73924100809111 -3.8279422553367746 0.0051039260599579665 0.04148362727592221 0.014495721398282459 0.03938988277298362 -10.758794700033278 0.04432574721693603 
0.020503876261521975 -0.018432364043143457 -0.032605086834753376 0.020505118259418163 -0.013749654673997727 0.02388709413032091 -4.475335436023505 7.924546124427861 -0.4959243253221246 -0.6966462962610969 2.905577715173987 0.40342965786624413 -0.9975057847839591 0.19996418239873665 -1.4476406449494457 -0.6039936604670715 0.2427989295183251 -1.0831462368041342 -0.026108547513907676 7.5426209088829115 -0.15845081243451914 -0.11944013949656804 -1.2653158474623787 -3.4819935902607018 -0.041342267568326964 -15.339380201130583 -0.2450320134393479 3.8871875514333265 -0.05208732840358924 -9.738815640206385 56.40160684909359 -13.762591250781668 28.145027430397608 29.754672507462637 9.718454801366217 100.65550571081982 25.17246205071583 -0.05459963932773526 -11.083318140859022 4.546106103996829 -0.17041133935057928 -1.5780016658218623 -0.04429243922942143 0.045785050429530405 -56.25938579955574 -0.03802212138766262 0.014760164794513825 -56.198580779505946 -38.77714933126977 0.036110209962076714 0.0026819090507691308 0.01562710687254512 -0.00396802749208974 -0.00019836358360853518 0.036013937109208034 0.020084220357681898 -0.016308162959900976 -36.69631380209258 0.00992052780466375 -0.0008748927685238783 0.010040222789967768 -0.015659037881717058 0.01457764423455135 0.03262117499307181 0.04974393016617319 0.0049829901434756355 -19.740418710985164 0.011560295562596239 -0.015258376434478638 0.014034370866389588 -0.02243640906101019 0.034541799921197935 -0.02944853458224927 -0.012010777429757293 0.047427429502734805 24.10112149645002 -0.004886053938217762 0.028352009241178835 28.828536639117807 0.026917609795238513 -0.004338461994148471 28.875376175759953 -0.025164628378693408 -0.003466822281512409 -3.325197158699863 -0.09611249870525335 8.284034460012428 -58.6517649337605 19.948402307531452 -22.925215871341667 -41.838899985589855 9.255777325493671 -100.07389346697882 -13.153202711672312 2.614045405327443 -1.8645113821146706 -0.42630461898495575 0.10252046777661573 -8.101864238212464 0.013736936667716816 -8.407174729951817e-06 44.56769440145385 -0.018916547653028665 -0.006190323131395652 44.59480378452605 12.494297557368444 -0.0038804994862304664 -0.014533021442876447 0.01551343863884895 0.03321311647813005 0.032794385972981045 -0.015065988132219798 -0.0132107240933593 0.0006345415129757253 11.123776704118125 -0.023806319474535622 -0.004718765903725232 0.041009723612375544 0.004104051924530849 -0.02265969814009378 -0.003725949205986522 0.025953471980702608 -0.006014313711138324 4.769423997610813 0.010032899226487006 0.01670243409920231 0.01996736124962419 0.01470820370971952 0.01492686839603749 -0.026866795912777526 0.007276326656844916 -0.012790456471993077 -5.595681889306418 -0.01612466497491969 -0.003913236668334044 -6.6881051791872235 0.04843110528698784 0.00947330969006357 -6.750928341672467 0.036985757301924334 0.04000437862146502 -0.023989691532435985 0.015417250155120578 -0.010441258973312915 8.071715610919385 3.4486488345274253 -19.19531118499537 0.02032423849221506 10.356069605804276 0.026032404833337602 -5.629554439385658 -15.679047603663024 3.237665684908628 -0.03911479327704821 -0.01116617551184197 -0.04118498225984236 0.007346989807218331 4.705777691374585 -0.038579767211807 12.504003863788718 -8.235394059836887 6.918068859877609 0.025470037740836022 46.33625243346995 0.027781136462946686 -4.355651155012618 -14.771834646395266 -3.819209415659933 -0.0395333399504897 -0.03487536871163369 -0.03877727577164348 0.004531421985951744 -10.78769329911138 -0.0345873159720908 
0.04082740089748938 0.02975090889406124 0.0421398257340332 -0.0013453321476994174 -0.0013061263197176964 0.03176053086438302 -4.322804137147985 7.8137368487117 -0.5043539907169483 -0.6742488812696187 2.9516382818243896 0.36998079495104286 -1.0317826959556056 0.20094382529044855 -1.6850937828156392 -0.5035506314847236 0.2336191195257341 -1.083462076896322 0.06333420603186395 7.728975649471702 -0.29974432554684144 -0.051032539829206636 -1.2060082557272644 -3.717753098273822 -0.018734104652075107 -15.181166025438273 -0.24103002556751277 3.5928459726399025 -0.031329121149200057 -9.695306231381327 54.40986411901372 -14.576990238328895 30.487514153075733 30.242178021132816 10.156306494861882 99.39577891654483 25.570208389134816 -0.06605785810582956 -11.42762140455051 4.560315973845573 -0.15795313065228772 -1.5748544275444887 0.003195280828092554 -0.000250210684854334 -56.219920214492454 0.022282010434565493 0.019092785302868478 -56.24558169508564 -38.79863910914325 0.010910277887121038 0.04619657178446347 -0.009835470966423348 -0.03866287130691294 0.004502804872882129 0.01550982320134105 0.02430582299787482 -0.03399185299129616 -36.71327967069633 0.015825904884626426 -0.004143736862364449 -0.002783964275837641 0.04692591142310295 -0.014578587121357105 -0.028050735603631284 0.04256838600410563 -0.03453389732049323 -19.765706131702167 0.030674515205765092 0.038510340105004655 0.023828645406239038 0.03590146933729618 0.019908294757592378 0.02048574022074325 0.002870548140046657 -0.006960156066147733 24.089130848551896 -0.04735202911108915 -0.025636534027201646 28.883599701197156 0.031250071371976725 0.02719192197378412 28.868533500218813 -0.046379882736402 0.0023558983057331167 -3.001485588741675 -0.05765923560582464 8.032784690945537 -56.44461886168017 20.98510232275965 -25.641523638729502 -37.34152345755968 8.193667414243512 -99.10976253858097 -13.998431302098998 2.1437185825258487 -1.7707877174125 -0.4591312517689607 0.024263061564913403 -8.132887807571567 -0.03352523065127144 0.03253784797474607 44.55029101150123 0.04642983388089872 0.0020961488732418702 44.53032021804106 12.440764773242945 0.044128994927590585 -0.03207877926155373 -0.005656871956071322 0.003703375830190082 0.02311414812604626 -0.027255825312867944 0.023540801230988177 0.015328447306977524 11.090465332823916 0.0140278019414382 0.0054076855524347505 0.00300225810328539 -0.0010935619894641003 -0.03771170736476811 -0.01858463318859618 0.03766987931606033 -0.001152832888947142 4.733823347053168 0.036053757670990005 -0.04430812516478149 0.007529612344955388 -0.026385042134355968 -0.029694936616512818 0.009596083224710896 -0.01415310450437692 0.0025982833089299062 -5.634595751042234 0.003314100914599816 0.009501616744100837 -6.740331347443498 0.0045954304602458165 -0.02880263413630709 -6.76702130375487 0.011309550638858239 -0.04209167412603956 0.015141960479083014 -0.004387164366641303 -0.04824575249857059 8.093052923068726 3.4827886557410532 -19.250849952059255 0.01829364850712847 10.3613909133829 -0.028157699882505435 -5.646606601688253 -15.683657129585027 3.2253865471442844 -0.010365442811857951 -0.02035010383639346 -0.016794759790822154 0.017125619097932494 4.743609172031923 2.762751774121814e-05 12.42905470155139 -8.203915964119536 6.898781203026083 0.017749037804353763 46.38709726311816 -0.03617548992335946 -4.348798841807342 -14.709211738177851 -3.834663724832752 0.03420823236468734 0.04236885244571193 -0.02553690327253452 0.044900058724171306 -10.781880696922919 -0.014187169988964722 
0.0101236864392095 -0.000392215764958256 -0.019326838613892127 -0.02657156217861741 -0.025864714328417655 0.045763937330703004 -4.206323438770325 7.751943572745066 -0.5611303005345823 -0.7364047891664689 2.900777420561615 0.320415309653061 -1.0196831214786664 0.1976947350923117 -1.8656987632819118 -0.41997887814964674 0.26179091746578886 -1.0932980772706493 0.10946507142809514 7.888036239179145 -0.47270628543812865 -0.08698510653888045 -1.1577776557092254 -3.8289497493329225 0.0005428710453716651 -15.06549781038528 -0.20058363568846596 3.212144496054327 0.10744611779543123 -9.654695571692942 53.20341692994564 -15.02974987691631 32.31847339633189 30.359477064702777 10.609091147862843 97.24066595426008 25.918993947168424 0.014352425129812883 -11.782989049784566 4.568440340111151 -0.09528419807810226 -1.629316802770345 -0.008942268874482627 0.022786598228706906 -56.27392779458291 0.02918861586691192 -0.035779208297467176 -56.27366999403147 -38.729259390029426 -0.0031156735453651573 -0.018822422021575972 -0.008211814243503097 -0.00968581249693267 0.03442851818740246 -0.041355284697656064 0.04905444142141103 -0.0319833543374062 -36.73016614696805 0.04418760237051033 -0.03616748153644404 0.006361925243257368 -0.03421053949138171 0.011059133919508165 -0.004003988555706661 -0.020495233933109917 -0.047103862053015075 -19.7195448400649 0.007844104001315586 -0.038930335501773994 0.039844217069969864 -0.037535824076594254 0.027886273554996482 0.04152124898361651 0.04843897008138219 -0.021244855965563563 24.009359253945732 0.04621909388027834 -0.047468228900403454 28.876380979037908 -0.04351559073140709 -0.023497551718155534 28.854293351978335 0.043957330613044375 0.036558854633542213 -2.679439168722048 0.002722913582243365 7.8466006060525695 -54.690721576846904 21.653598533925123 -28.141235972133625 -33.08971443669011 7.134301733849258 -97.84329508033774 -14.844690060873965 1.6311844286200403 -1.6899619283605138 -0.5163050729999885 0.0873490698927798 -8.148134896935133 -0.016152126938032713 -0.026255388195584643 44.57988894131132 0.018637924019165992 0.04770298677286699 44.5839136743661 12.481918608113084 -0.0025880715958698725 -0.01174373664474764 -0.0397247499543555 -0.012579132793892077 -0.03956846756313347 0.021431723261534082 -0.009224614938979553 0.03847722636622656 11.140274921750985 -0.04494179825911538 0.017778365018030498 -0.03987955235616224 -0.03910709643762025 0.03723543649798468 0.04368324346433042 0.01622623074331258 -0.0001359118741641539 4.722721787780945 -0.0030343798359697117 0.029238027665205942 -0.011382853394275715 0.0028090249941205257 -0.011040911731072774 -0.01869767280740647 0.018653528287409647 -0.04668879426936988 -5.565471541227211 0.037918489839401895 0.017209853745363067 -6.684676153807263 -0.02748672672482994 -0.03601382196166671 -6.768128453334458 0.04831027710673052 -0.0071083755894819035 -0.04391534038583928 -0.043796937439329005 -0.008569873588190405 8.036317909186318 3.450582159846877 -19.21099345149781 -0.010164143099467284 10.420204617973345 0.06055685814859073 -5.647122948987319 -15.616728904275616 3.1597074371597196 0.04334915738318365 -0.0496552331293075 0.014716422985831543 -0.00955993110226981 4.719576575098995 0.003986290803930144 12.454756694722997 -8.256450302600921 6.877069209260313 0.03380107992857054 46.34962230146755 -0.026986654174161344 -4.360619147830993 -14.73047532504233 -3.822198091684209 0.035208990365195945 0.0019298831804013927 0.021078192475423013 0.016455950785272084 -10.752515619381482 0.004319989601777215 
